HIERARCHY
ROOT Hips
{
	OFFSET 0.00000 0.00000 0.00000
	CHANNELS 6 Xposition Yposition Zposition Zrotation Yrotation Xrotation 
	JOINT LHipJoint
	{
		OFFSET 0 0 0
		CHANNELS 3 Zrotation Yrotation Xrotation
		JOINT LeftHip
		{
			OFFSET 1.57338 -1.94743 0.52196
			CHANNELS 3 Zrotation Yrotation Xrotation
			JOINT LeftKnee
			{
				OFFSET 2.60333 -7.15259 0.00000
				CHANNELS 3 Zrotation Yrotation Xrotation
				JOINT LeftAnkle
				{
					OFFSET 2.77855 -7.63400 0.00000
					CHANNELS 3 Zrotation Yrotation Xrotation
					JOINT LeftToe
					{
						OFFSET 0.19847 -0.54529 2.28466
						CHANNELS 3 Zrotation Yrotation Xrotation
						End Site
						{
							OFFSET 0.00000 -0.00000 1.17993
						}
					}
				}
			}
		}
	}
	JOINT RHipJoint
	{
		OFFSET 0 0 0
		CHANNELS 3 Zrotation Yrotation Xrotation
		JOINT RightHip
		{
			OFFSET -1.61527 -1.94743 0.52196
			CHANNELS 3 Zrotation Yrotation Xrotation
			JOINT RightKnee
			{
				OFFSET -2.53829 -6.97390 0.00000
				CHANNELS 3 Zrotation Yrotation Xrotation
				JOINT RightAnkle
				{
					OFFSET -2.80762 -7.71387 0.00000
					CHANNELS 3 Zrotation Yrotation Xrotation
					JOINT RightToe
					{
						OFFSET -0.30536 -0.83898 2.28801
						CHANNELS 3 Zrotation Yrotation Xrotation
						End Site
						{
							OFFSET -0.00000 -0.00000 1.21323
						}
					}
				}
			}
		}
	}
	JOINT lowerback
	{
		OFFSET 0 0 0
		CHANNELS 3 Zrotation Yrotation Xrotation
		JOINT Chest
		{
			OFFSET -0.04381 1.99497 -0.19778
			CHANNELS 3 Zrotation Yrotation Xrotation
			JOINT Chest2
			{
				OFFSET -0.01959 2.01295 -0.04372
				CHANNELS 3 Zrotation Yrotation Xrotation
				JOINT lowerneck
				{
					OFFSET 0 0 0
					CHANNELS 3 Zrotation Yrotation Xrotation
					JOINT Neck
					{
						OFFSET -0.05459 1.76913 0.09708
						CHANNELS 3 Zrotation Yrotation Xrotation
						JOINT Head
						{
							OFFSET 0.09461 1.77368 -0.11172
							CHANNELS 3 Zrotation Yrotation Xrotation
							End Site
							{
								OFFSET 0.03812 1.78157 -0.04834
							}
						}
					}
				}
				JOINT LeftCollar
				{
					OFFSET 0 0 0
					CHANNELS 3 Zrotation Yrotation Xrotation
					JOINT LeftShoulder
					{
						OFFSET 3.50922 1.24034 -0.28866
CHANNELS 3 Zrotation Xrotation Yrotation
						JOINT LeftElbow
						{
OFFSET 0 -5.401880 0.000000
CHANNELS 3 Zrotation Xrotation Yrotation
							JOINT LeftWrist
							{
OFFSET 0 -3.685590 0.000000
CHANNELS 3 Zrotation Xrotation Yrotation
								JOINT lhand
								{
									OFFSET 0 0 0
CHANNELS 3 Zrotation Xrotation Yrotation
									JOINT LFingers
									{
OFFSET 0 -0.617530 0.000000
CHANNELS 3 Zrotation Xrotation Yrotation
										End Site
										{
OFFSET 0 -0.497870 0.000000
										}
									}
								}
								JOINT LThumb
								{
OFFSET 0 0.000000 0.000000
CHANNELS 3 Zrotation Xrotation Yrotation
									End Site
									{
OFFSET 0 -0.505470 0.505470
									}
								}
							}
						}
					}
				}
				JOINT RightCollar
				{
					OFFSET 0 0 0
					CHANNELS 3 Zrotation Yrotation Xrotation
					JOINT RightShoulder
					{
						OFFSET -2.95373 1.39649 -0.27346
CHANNELS 3 Zrotation Xrotation Yrotation
						JOINT RightElbow
						{
OFFSET 0 -6.106700 -0.000000
CHANNELS 3 Zrotation Xrotation Yrotation
							JOINT RightWrist
							{
OFFSET 0 -3.630520 0.000000
CHANNELS 3 Zrotation Xrotation Yrotation
								JOINT rhand
								{
									OFFSET 0 0 0
CHANNELS 3 Zrotation Xrotation Yrotation
									JOINT RFingers
									{
OFFSET 0 -0.583850 0.000000
CHANNELS 3 Zrotation Xrotation Yrotation
										End Site
										{
OFFSET 0 -0.470710 0.000000
										}
									}
								}
								JOINT RThumb
								{
OFFSET 0 0.000000 0.000000
CHANNELS 3 Zrotation Xrotation Yrotation
									End Site
									{
OFFSET 0 -0.477900 0.477900
									}
								}
							}
						}
					}
				}
			}
		}
	}
}
MOTION
Frames: 9
Frame Time: 0.008333333333333333
-2.230307 17.726840 1.146442 -2.167480 -46.197338 45.489834 0.000000 0.000000 0.000000 1.064434 -12.159901 -34.621210 1.195142 6.936890 19.528568 12.786987 -0.567455 -69.581167 4.999796 13.383384 40.821587 0.000000 0.000000 0.000000 -39.138843 39.253800 -80.751266 -1.648450 -8.091861 22.993515 0.019566 -2.489925 -0.700295 -0.152769 2.518356 -6.940562 -13.758895 -6.914435 33.412034 -5.246034 -13.355512 11.577154 5.433478 -6.719621 -2.290554 -6.490325 4.289587 -17.170384 8.560670 4.641706 31.903973 5.160598 2.080677 13.118283 0.000000 0.000000 0.000000 60.897592 -65.677123 55.712788 -0.642369 1.112507 0.006297 18.433428 72.806514 -22.006025 0.000000 0.000000 0.000000 -7.125000 0.000000 0.000000 -10.748822 52.736628 2.065414 0.000000 0.000000 0.000000 -58.419549 7.034520 -91.190486 -10.164478 -16.996469 -1.522713 -21.570215 -2.984038 2.443525 0.000000 0.000000 0.000000 7.125000 0.000000 0.000000 4.063594 32.588965 1.237788
-2.158435 17.717393 1.090130 -1.201812 -45.591765 44.239957 0.000000 0.000000 0.000000 0.803788 -12.760995 -34.098130 1.138820 6.777059 19.056473 12.602774 -1.386599 -68.928923 5.128884 13.527582 41.376730 0.000000 0.000000 0.000000 -39.175291 38.933760 -80.212889 -1.745979 -8.315653 23.677055 0.024696 -2.789642 -1.142479 -0.142339 2.431327 -6.699306 -12.485778 -6.829231 32.865442 -4.901719 -12.767867 11.685977 5.000767 -6.440986 -2.262083 -6.540198 3.958357 -16.494188 8.276328 4.282553 31.365396 4.949591 1.912318 12.796088 0.000000 0.000000 0.000000 63.191751 -65.406626 58.041259 -0.571093 0.988962 0.004902 17.814042 72.809601 -21.693296 0.000000 0.000000 0.000000 -7.125000 0.000000 0.000000 -11.241472 52.311097 2.044202 0.000000 0.000000 0.000000 -60.566733 3.853449 -90.022780 -10.033094 -16.791446 -1.484527 -20.239254 -2.703572 2.342380 0.000000 0.000000 0.000000 7.125000 0.000000 0.000000 5.130084 32.447670 1.582172
-2.066465 17.736641 0.983296 0.302494 -44.139840 41.918954 0.000000 0.000000 0.000000 0.721237 -14.234551 -33.251110 1.104210 6.676696 18.760953 12.377704 -0.669122 -68.339491 5.139383 13.539074 41.421507 0.000000 0.000000 0.000000 -37.949931 38.364557 -78.089797 -1.788395 -8.410617 23.968445 0.028878 -3.029492 -1.417862 -0.180492 2.736438 -7.545762 -11.651708 -7.065813 31.314458 -4.626624 -12.564401 11.716609 5.133524 -6.366668 -2.055214 -7.328143 3.804124 -16.198518 8.304675 4.358033 30.606571 5.052977 1.905130 12.391206 0.000000 0.000000 0.000000 62.940484 -63.469073 57.813403 -0.214105 0.370828 0.000773 16.485124 70.704633 -19.992011 0.000000 0.000000 0.000000 -7.125000 0.000000 0.000000 -11.897345 50.377948 1.596602 0.000000 0.000000 0.000000 -63.097261 -0.228711 -87.498186 -9.535662 -16.009957 -1.344042 -21.853173 -1.088435 0.846058 0.000000 0.000000 0.000000 7.125000 0.000000 0.000000 3.749944 30.879042 1.296277
-1.964842 17.788123 0.858510 1.410877 -41.309721 38.520569 0.000000 0.000000 0.000000 1.327599 -16.620124 -31.263260 1.105130 6.679493 18.769179 12.141241 0.153884 -67.735487 5.082598 13.476198 41.178223 0.000000 0.000000 0.000000 -34.283872 37.994072 -73.912713 -1.891511 -8.636361 24.664243 0.027172 -2.979273 -1.698305 -0.184712 2.767839 -7.633086 -10.267259 -7.150939 30.200000 -3.819064 -12.173551 10.934844 5.133662 -6.116254 -2.634673 -7.525697 3.496735 -16.106250 8.520227 3.957378 30.513858 5.113739 1.756738 12.364018 0.000000 0.000000 0.000000 60.912971 -60.240132 54.478789 0.383888 -0.664880 0.002265 17.969190 68.232133 -20.030424 0.000000 0.000000 0.000000 -7.125000 0.000000 0.000000 -10.475059 50.655606 1.474248 0.000000 0.000000 0.000000 -65.110175 -3.370253 -84.476980 -9.122104 -15.354781 -1.232242 -22.093055 0.764965 -0.118691 0.000000 0.000000 0.000000 7.125000 0.000000 0.000000 3.519783 29.842564 1.303691
-1.864049 17.842376 0.736457 2.462366 -37.676966 33.701116 0.000000 0.000000 0.000000 1.535598 -19.729829 -27.560618 1.103490 6.674471 18.754515 11.737039 1.846655 -66.765701 4.838533 13.199627 40.120464 0.000000 0.000000 0.000000 -29.969172 38.139146 -68.113509 -2.113095 -9.097781 26.101632 0.022331 -3.213188 -3.104159 -0.161872 2.592564 -7.146365 -8.227563 -6.422610 28.110621 -3.394946 -10.568088 10.484814 3.901451 -5.318373 -2.731623 -6.401484 2.223756 -14.856423 9.695147 1.560742 28.761612 4.926758 1.028753 11.660239 0.000000 0.000000 0.000000 59.464986 -58.406178 48.330802 0.672851 -1.165215 0.006799 19.965723 65.150781 -19.409124 0.000000 0.000000 0.000000 -7.125000 0.000000 0.000000 -8.327459 50.344664 1.103638 0.000000 0.000000 0.000000 -65.160316 -3.665394 -82.757626 -8.788306 -14.822408 -1.145330 -22.216076 3.675122 -1.461977 0.000000 0.000000 0.000000 7.125000 0.000000 0.000000 3.381025 28.394486 1.368589
-1.744776 17.892106 0.687549 4.078894 -32.458863 27.805829 0.000000 0.000000 0.000000 0.400327 -22.214081 -23.761800 1.054762 6.530185 18.330756 9.524770 9.010762 -61.556803 3.372599 11.273365 33.209520 0.000000 0.000000 0.000000 -24.525394 36.911047 -60.667794 -2.565871 -9.956499 28.836147 -0.028917 -3.009758 -5.621872 -0.232933 3.105598 -8.572945 -4.916720 -6.256149 25.148490 -3.094499 -9.385972 9.976343 1.866872 -4.696236 -2.542819 -4.804395 0.996890 -14.694665 9.717508 -0.429505 27.211333 4.325941 0.359710 11.251176 0.000000 0.000000 0.000000 60.720100 -56.096329 42.973260 1.167165 -2.020683 0.020621 19.167967 61.231843 -19.028613 0.000000 0.000000 0.000000 -7.125000 0.000000 0.000000 -8.983416 49.825361 1.076567 0.000000 0.000000 0.000000 -64.382306 -3.570252 -79.280138 -9.061737 -15.258758 -1.216337 -21.408949 4.065016 -0.376463 0.000000 0.000000 0.000000 7.125000 0.000000 0.000000 4.046755 29.564041 1.526758
-1.634275 17.956068 0.747774 5.818066 -27.482152 20.327863 0.000000 0.000000 0.000000 -4.310635 -15.611784 -20.081768 0.977726 6.294559 17.641446 4.248354 14.756213 -45.723646 1.783370 8.393180 23.918597 0.000000 0.000000 0.000000 -18.678789 35.773312 -50.866659 -3.090307 -10.839633 31.741182 -0.144953 -2.894977 -8.858406 -0.368974 3.899371 -10.794053 -3.935934 -6.218412 22.906863 -1.833602 -8.986747 9.334465 2.364741 -4.522842 -2.121834 -6.106769 0.464683 -15.810214 8.885368 -0.333484 25.666526 4.219352 0.245477 10.884338 0.000000 0.000000 0.000000 62.710830 -51.039327 40.224733 1.983793 -3.431252 0.059512 18.232429 54.824763 -18.787214 0.000000 0.000000 0.000000 -7.125000 0.000000 0.000000 -9.808109 49.432722 1.081393 0.000000 0.000000 0.000000 -66.187347 -6.122797 -74.582631 -8.715642 -14.706024 -1.126850 -21.983956 5.191559 -0.750971 0.000000 0.000000 0.000000 7.125000 0.000000 0.000000 3.582872 29.161853 1.385384
-1.542007 18.035661 0.916679 6.597779 -21.760437 13.245147 0.000000 0.000000 0.000000 -7.433549 -9.727936 -16.669241 1.023255 6.435154 18.052299 0.877371 17.776782 -31.607503 0.143404 2.439027 6.720792 0.000000 0.000000 0.000000 -12.345233 33.627187 -39.537492 -3.360748 -11.257319 33.152579 -0.308958 -3.515448 -12.393465 -0.485653 4.468445 -12.398496 -2.976853 -5.861868 20.227088 -0.702302 -8.241608 8.187151 2.656613 -4.151925 -2.039714 -6.595038 0.108623 -15.513508 8.052422 -0.373215 24.605292 3.951913 0.108694 10.441933 0.000000 0.000000 0.000000 64.900822 -46.394406 34.821996 3.189586 -5.504789 0.153365 20.377044 46.603079 -19.280997 0.000000 0.000000 0.000000 -7.125000 0.000000 0.000000 -7.887057 50.279043 1.031816 0.000000 0.000000 0.000000 -65.944902 -7.319701 -70.930371 -8.436151 -14.257274 -1.056934 -21.833259 6.610131 -0.927367 0.000000 0.000000 0.000000 7.125000 0.000000 0.000000 3.694589 28.972539 1.445291
-1.420062 18.059061 1.162739 6.122176 -15.891869 7.364345 0.000000 0.000000 0.000000 -8.049384 -7.502898 -12.865687 1.115406 6.709252 18.856907 -0.061732 15.251596 -20.997317 0.041333 -1.311923 -3.607402 0.000000 0.000000 0.000000 -6.435049 30.828959 -28.548723 -3.429791 -11.360301 33.504760 -0.488307 -3.977560 -15.257237 -0.303346 3.540963 -9.788721 -1.823054 -5.059901 18.005283 0.366906 -6.935273 6.798007 2.755636 -3.479495 -2.470422 -6.423456 -0.245064 -15.620007 7.348988 -0.654266 24.053412 3.617140 -0.062129 10.289360 0.000000 0.000000 0.000000 68.696456 -43.064024 28.874712 4.575349 -7.866545 0.314803 17.849463 37.561702 -18.873355 0.000000 0.000000 0.000000 -7.125000 0.000000 0.000000 -10.202606 49.461634 1.132739 0.000000 0.000000 0.000000 -63.833260 -6.000738 -64.586587 -8.465151 -14.303961 -1.064083 -21.199028 6.743736 -1.083366 0.000000 0.000000 0.000000 7.125000 0.000000 0.000000 4.183153 28.807419 1.653530
